<svg width="10" height="6" viewBox="0 0 10 6" fill="none" xmlns="http://www.w3.org/2000/svg">
<path fill-rule="evenodd" clip-rule="evenodd" d="M0.234682 0.484438C0.269516 0.449515 0.310898 0.421808 0.356457 0.402903C0.402016 0.383998 0.450857 0.374268 0.500182 0.374268C0.549508 0.374268 0.598349 0.383998 0.643907 0.402903C0.689466 0.421808 0.730848 0.449515 0.765682 0.484438L5.00018 4.71969L9.23468 0.484438C9.26955 0.449572 9.31094 0.421914 9.35649 0.403045C9.40205 0.384176 9.45087 0.374464 9.50018 0.374464C9.54949 0.374464 9.59832 0.384176 9.64387 0.403045C9.68942 0.421914 9.73082 0.449572 9.76568 0.484438C9.80055 0.519304 9.82821 0.560695 9.84707 0.60625C9.86594 0.651805 9.87566 0.70063 9.87566 0.749938C9.87566 0.799246 9.86594 0.848071 9.84707 0.893626C9.82821 0.93918 9.80055 0.980572 9.76568 1.01544L5.26568 5.51544C5.23085 5.55036 5.18947 5.57807 5.14391 5.59697C5.09835 5.61588 5.04951 5.62561 5.00018 5.62561C4.95086 5.62561 4.90202 5.61588 4.85646 5.59697C4.8109 5.57807 4.76952 5.55036 4.73468 5.51544L0.234682 1.01544C0.19976 0.980604 0.172053 0.939222 0.153148 0.893663C0.134243 0.848104 0.124512 0.799263 0.124512 0.749938C0.124512 0.700612 0.134243 0.651771 0.153148 0.606213C0.172053 0.560654 0.19976 0.519272 0.234682 0.484438Z" fill="white"/>
</svg>
