<svg width="18" height="18" viewBox="0 0 18 18" fill="none" xmlns="http://www.w3.org/2000/svg">
<path d="M0.600403 1.80004C0.600403 1.13729 1.13766 0.600037 1.8004 0.600037H6.2004V6.20004H0.600403V1.80004Z" stroke="#999999" stroke-width="1.2"/>
<path d="M0.600403 6.20001H6.2004V11.8H0.600403V6.20001Z" stroke="#999999" stroke-width="1.2"/>
<path d="M0.600403 11.8001H6.2004V17.4001H1.8004C1.13766 17.4001 0.600403 16.8629 0.600403 16.2001V11.8001Z" stroke="#999999" stroke-width="1.2"/>
<path d="M6.20081 0.600037H11.8008V6.20004H6.20081V0.600037Z" stroke="#999999" stroke-width="1.2"/>
<path d="M11.8 0.600037H16.2C16.8627 0.600037 17.4 1.13729 17.4 1.80004V6.20004H11.8V0.600037Z" stroke="#999999" stroke-width="1.2"/>
<path d="M6.20081 6.20001H11.8008V11.8H6.20081V6.20001Z" stroke="#999999" stroke-width="1.2"/>
<path d="M6.20081 11.8001H11.8008V17.4001H6.20081V11.8001Z" stroke="#999999" stroke-width="1.2"/>
<path d="M11.8 6.20001H17.4V11.8H11.8V6.20001Z" stroke="#999999" stroke-width="1.2"/>
<path d="M11.8 11.8001H17.4V16.2001C17.4 16.8629 16.8627 17.4001 16.2 17.4001H11.8V11.8001Z" stroke="#999999" stroke-width="1.2"/>
</svg>
