<svg xmlns="http://www.w3.org/2000/svg" xmlns:xlink="http://www.w3.org/1999/xlink" viewBox="0 0 1059.24 1104.76"><defs><style>.cls-1{isolation:isolate;}.cls-2{mix-blend-mode:multiply;opacity:0.15;}.cls-3,.cls-73{fill:#fff;}.cls-3{opacity:0;}.cls-4,.cls-68{fill:#fafafa;}.cls-4{opacity:0.02;}.cls-5,.cls-63{fill:#f5f5f5;}.cls-5{opacity:0.04;}.cls-58,.cls-6{fill:#f0f0f0;}.cls-6{opacity:0.06;}.cls-7{fill:#ebebeb;opacity:0.08;}.cls-8{fill:#e6e6e6;opacity:0.1;}.cls-9{fill:#e1e1e1;opacity:0.12;}.cls-10{fill:#dcdcdc;opacity:0.14;}.cls-11{fill:#d7d7d7;opacity:0.16;}.cls-12{fill:#d2d2d2;opacity:0.18;}.cls-13{fill:#cdcdcd;opacity:0.2;}.cls-14{fill:#c8c8c8;opacity:0.22;}.cls-15{fill:#c3c3c3;opacity:0.24;}.cls-16{fill:#bebebe;opacity:0.25;}.cls-17{fill:#b9b9b9;opacity:0.27;}.cls-18{fill:#b4b4b4;opacity:0.29;}.cls-19{fill:#afafaf;opacity:0.31;}.cls-20{fill:#aaa;opacity:0.33;}.cls-21{fill:#a5a5a5;opacity:0.35;}.cls-22{fill:#a0a0a0;opacity:0.37;}.cls-23{fill:#9b9b9b;opacity:0.39;}.cls-24{fill:#969696;opacity:0.41;}.cls-25{fill:#919191;opacity:0.43;}.cls-26{fill:#8c8c8c;opacity:0.45;}.cls-27{fill:#878787;opacity:0.47;}.cls-28{fill:#828282;opacity:0.49;}.cls-29{fill:#7d7d7d;opacity:0.51;}.cls-30{fill:#787878;opacity:0.53;}.cls-31{fill:#737373;opacity:0.55;}.cls-32{fill:#6e6e6e;opacity:0.57;}.cls-33{fill:#696969;opacity:0.59;}.cls-34{fill:#646464;opacity:0.61;}.cls-35{fill:#5f5f5f;opacity:0.63;}.cls-36{fill:#5a5a5a;opacity:0.65;}.cls-37{fill:#555;opacity:0.67;}.cls-38{fill:#505050;opacity:0.69;}.cls-39{fill:#4b4b4b;opacity:0.71;}.cls-40{fill:#464646;opacity:0.73;}.cls-41{fill:#414141;opacity:0.75;}.cls-42{fill:#3c3c3c;opacity:0.76;}.cls-43{fill:#373737;opacity:0.78;}.cls-44{fill:#323232;opacity:0.8;}.cls-45{fill:#2d2d2d;opacity:0.82;}.cls-46{fill:#282828;opacity:0.84;}.cls-47{fill:#232323;opacity:0.86;}.cls-48{fill:#1e1e1e;opacity:0.88;}.cls-49{fill:#191919;opacity:0.9;}.cls-50{fill:#141414;opacity:0.92;}.cls-51{fill:#0f0f0f;opacity:0.94;}.cls-52{fill:#0a0a0a;opacity:0.96;}.cls-53{fill:#050505;opacity:0.98;}.cls-54{fill:#ececec;}.cls-55{fill:#ededed;}.cls-56{fill:#eee;}.cls-57{fill:#efefef;}.cls-59{fill:#f1f1f1;}.cls-60{fill:#f2f2f2;}.cls-61{fill:#f3f3f3;}.cls-62{fill:#f4f4f4;}.cls-64{fill:#f6f6f6;}.cls-65{fill:#f7f7f7;}.cls-66{fill:#f8f8f8;}.cls-67{fill:#f9f9f9;}.cls-69{fill:#fbfbfb;}.cls-70{fill:#fcfcfc;}.cls-71{fill:#fdfdfd;}.cls-72{fill:#fefefe;}.cls-74,.cls-75{mix-blend-mode:soft-light;opacity:0.5;}.cls-74{fill:url(#White_Black);}.cls-75{fill:url(#White_Black-2);}.cls-76{fill:#333;}</style><linearGradient id="White_Black" x1="28.28" y1="487.9" x2="947.52" y2="487.9" gradientUnits="userSpaceOnUse"><stop offset="0" stop-color="#fff"/><stop offset="1"/></linearGradient><linearGradient id="White_Black-2" x1="487.9" y1="28.28" x2="487.9" y2="947.52" xlink:href="#White_Black"/></defs><g class="cls-1"><g id="Layer_2" data-name="Layer 2"><g id="Layer_1-2" data-name="Layer 1"><g class="cls-2"><path class="cls-3" d="M867,1104.39l-666.16-21.22C77.78,1078.93,0,962.47,0,876.24V156.13A156.13,156.13,0,0,1,156.13,0H819.67A156.14,156.14,0,0,1,975.81,156.13l77.87,685.19C1083.39,972.85,990,1112.87,867,1104.39Z"/><path class="cls-4" d="M866.57,1101.53l-666.79-20.79C77.94,1076.58.72,961.43.72,875.7V156A155.23,155.23,0,0,1,156,.78H820.18A155.23,155.23,0,0,1,975.42,156l76.35,685.45C1080.89,971.61,988.4,1109.85,866.57,1101.53Z"/><path class="cls-5" d="M866.15,1098.68,198.72,1078.3C78.11,1074.22,1.44,960.39,1.44,875.15V155.89A154.34,154.34,0,0,1,155.78,1.55H820.69A154.34,154.34,0,0,1,975,155.89l74.82,685.71C1078.39,970.37,986.77,1106.83,866.15,1098.68Z"/><path class="cls-6" d="M865.73,1095.83l-668.06-20c-119.4-4-195.51-116.51-195.51-201.25V155.77A153.45,153.45,0,0,1,155.61,2.33H821.2A153.44,153.44,0,0,1,974.64,155.77l73.3,686C1075.89,969.12,985.13,1103.81,865.73,1095.83Z"/><path class="cls-7" d="M865.31,1093l-668.69-19.55C78.44,1069.51,2.88,958.31,2.88,874.06V155.65A152.54,152.54,0,0,1,155.43,3.11H821.71A152.53,152.53,0,0,1,974.25,155.65L1046,841.88C1073.4,967.88,983.49,1100.79,865.31,1093Z"/><path class="cls-8" d="M864.89,1090.12,195.57,1071c-117-3.82-192-113.71-192-197.46v-718A151.66,151.66,0,0,1,155.26,3.88h667A151.66,151.66,0,0,1,973.87,155.53L1044.11,842C1070.9,966.63,981.86,1097.77,864.89,1090.12Z"/><path class="cls-9" d="M864.47,1087.27l-669.95-18.72C78.77,1064.8,4.33,956.23,4.33,873V155.41A150.75,150.75,0,0,1,155.08,4.66H822.72A150.75,150.75,0,0,1,973.48,155.41l68.71,686.75C1068.4,965.39,980.22,1094.75,864.47,1087.27Z"/><path class="cls-10" d="M864.05,1084.41l-670.59-18.3C78.94,1062.45,5.05,955.19,5.05,872.43V155.29A149.85,149.85,0,0,1,154.9,5.44H823.23A149.85,149.85,0,0,1,973.09,155.29l67.19,687C1065.9,964.15,978.58,1091.73,864.05,1084.41Z"/><path class="cls-11" d="M863.64,1081.56l-671.23-17.89C79.1,1060.09,5.77,954.15,5.77,871.88V155.17a149,149,0,0,1,149-149h669a149,149,0,0,1,149,149l65.66,687.26C1063.41,962.9,977,1088.71,863.64,1081.56Z"/><path class="cls-12" d="M863.22,1078.7l-671.86-17.47C79.27,1057.74,6.49,953.11,6.49,871.33V155.05A148.06,148.06,0,0,1,154.55,7h669.7A148.06,148.06,0,0,1,972.31,155.05l64.14,687.52C1060.91,961.66,975.31,1085.69,863.22,1078.7Z"/><path class="cls-13" d="M862.8,1075.85l-672.49-17.06c-110.88-3.41-183.1-106.72-183.1-188V154.93A147.17,147.17,0,0,1,154.38,7.76H824.76A147.17,147.17,0,0,1,971.93,154.93l62.6,687.78C1058.41,960.41,973.67,1082.67,862.8,1075.85Z"/><path class="cls-14" d="M862.38,1073l-673.12-16.64C79.6,1053,7.93,951,7.93,870.24V154.81A146.27,146.27,0,0,1,154.2,8.54H825.27A146.27,146.27,0,0,1,971.54,154.81l61.08,688C1055.91,959.17,972,1079.65,862.38,1073Z"/><path class="cls-15" d="M862,1070.14,188.2,1053.92C79.76,1050.67,8.65,950,8.65,869.7v-715A145.37,145.37,0,0,1,154,9.32H825.77A145.37,145.37,0,0,1,971.15,154.69L1030.7,843C1053.41,957.93,970.4,1076.63,862,1070.14Z"/><path class="cls-16" d="M861.54,1067.29l-674.39-15.81C79.93,1048.32,9.37,949,9.37,869.15V154.57A144.49,144.49,0,0,1,153.85,10.09H826.28A144.48,144.48,0,0,1,970.76,154.57l58,688.56C1050.92,956.68,968.76,1073.61,861.54,1067.29Z"/><path class="cls-17" d="M861.12,1064.43,186.1,1049c-106-3.08-176-101.13-176-180.43V154.45A143.58,143.58,0,0,1,153.67,10.87H826.79A143.58,143.58,0,0,1,970.37,154.45l56.5,688.82C1048.42,955.44,967.13,1070.59,861.12,1064.43Z"/><path class="cls-18" d="M860.7,1061.58l-675.65-15c-104.79-3-174.24-99.73-174.24-178.54V154.33A142.69,142.69,0,0,1,153.5,11.65H827.3A142.68,142.68,0,0,1,970,154.33l55,689.08C1045.92,954.19,965.49,1067.57,860.7,1061.58Z"/><path class="cls-19" d="M860.28,1058.73,184,1044.17C80.42,1041.25,11.54,945.82,11.54,867.52V154.21A141.79,141.79,0,0,1,153.32,12.42H827.81A141.79,141.79,0,0,1,969.6,154.21L1023,843.55C1043.42,953,963.86,1064.55,860.28,1058.73Z"/><path class="cls-20" d="M859.86,1055.87l-676.92-14.14C80.59,1038.9,12.26,944.78,12.26,867V154.09A140.89,140.89,0,0,1,153.15,13.2H828.32A140.89,140.89,0,0,1,969.21,154.09l51.92,689.6C1040.93,951.71,962.22,1061.53,859.86,1055.87Z"/><path class="cls-21" d="M859.44,1053l-677.55-13.73C80.75,1036.54,13,943.74,13,866.43V154A140,140,0,0,1,153,14H828.83a140,140,0,0,1,140,140l50.39,689.86C1038.43,950.46,960.58,1058.51,859.44,1053Z"/><path class="cls-22" d="M859,1050.16l-678.18-13.31c-99.92-2.66-167.14-94.15-167.14-171v-712A139.1,139.1,0,0,1,152.8,14.75H829.33a139.1,139.1,0,0,1,139.1,139.1L1017.3,844C1035.93,949.22,959,1055.49,859,1050.16Z"/><path class="cls-23" d="M858.6,1047.31l-678.81-12.9c-98.71-2.58-165.37-92.75-165.37-169.07V153.73a138.19,138.19,0,0,1,138.2-138.2H829.84A138.19,138.19,0,0,1,968,153.73l47.34,690.38C1033.43,948,957.31,1052.47,858.6,1047.31Z"/><path class="cls-24" d="M858.18,1044.46,178.74,1032c-97.49-2.5-163.6-91.36-163.6-167.19V153.61a137.3,137.3,0,0,1,137.3-137.3H830.35a137.3,137.3,0,0,1,137.3,137.3l45.81,690.64C1030.94,946.73,955.67,1049.45,858.18,1044.46Z"/><path class="cls-25" d="M857.76,1041.6l-680.08-12.06c-96.27-2.41-161.82-90-161.82-165.29V153.49A136.41,136.41,0,0,1,152.27,17.08H830.86A136.41,136.41,0,0,1,967.27,153.49l44.28,690.9C1028.44,945.48,954,1046.43,857.76,1041.6Z"/><path class="cls-26" d="M857.35,1038.75,176.63,1027.1c-95-2.33-160-88.56-160-163.4V153.37A135.51,135.51,0,0,1,152.09,17.86H831.37A135.51,135.51,0,0,1,966.88,153.37l42.75,691.16C1025.94,944.24,952.4,1043.41,857.35,1038.75Z"/><path class="cls-27" d="M856.93,1035.89l-681.35-11.23C81.74,1022.42,17.3,937.5,17.3,863.16V153.25A134.62,134.62,0,0,1,151.92,18.63h680A134.62,134.62,0,0,1,966.49,153.25l41.23,691.42C1023.44,943,950.76,1040.39,856.93,1035.89Z"/><path class="cls-28" d="M856.51,1033l-682-10.82C81.91,1020.06,18,936.46,18,862.61V153.13A133.72,133.72,0,0,1,151.74,19.41H832.38A133.72,133.72,0,0,1,966.1,153.13l39.7,691.68C1021,941.75,949.13,1037.37,856.51,1033Z"/><path class="cls-29" d="M856.09,1030.19l-682.62-10.4c-91.4-2.08-154.72-84.37-154.72-157.72V153A132.81,132.81,0,0,1,151.57,20.19H832.89A132.81,132.81,0,0,1,965.71,153L1003.89,845C1018.45,940.51,947.49,1034.35,856.09,1030.19Z"/><path class="cls-30" d="M855.67,1027.33l-683.25-10c-90.18-2-152.95-83-152.95-155.83V152.89A131.93,131.93,0,0,1,151.39,21h682A131.93,131.93,0,0,1,965.33,152.89L1002,845.09C1016,939.26,945.85,1031.33,855.67,1027.33Z"/><path class="cls-31" d="M855.25,1024.48l-683.88-9.57C82.4,1013,20.19,933.34,20.19,861V152.77a131,131,0,0,1,131-131h682.7a131,131,0,0,1,131,131l35.12,692.45C1013.45,938,944.22,1028.3,855.25,1024.48Z"/><path class="cls-32" d="M854.83,1021.62l-684.51-9.15c-87.75-1.83-149.41-80.17-149.41-152V152.65A130.13,130.13,0,0,1,151,22.52H834.42A130.13,130.13,0,0,1,964.55,152.65l33.59,692.71C1011,936.78,942.58,1025.28,854.83,1021.62Z"/><path class="cls-33" d="M854.41,1018.77,169.27,1010c-86.54-1.74-147.64-78.77-147.64-150.15V152.53A129.23,129.23,0,0,1,150.86,23.29H834.93A129.23,129.23,0,0,1,964.16,152.53l32.07,693C1008.46,935.53,940.94,1022.26,854.41,1018.77Z"/><path class="cls-34" d="M854,1015.92l-685.78-8.32C82.9,1005.93,22.35,930.22,22.35,859.34V152.41A128.34,128.34,0,0,1,150.69,24.07H835.44A128.34,128.34,0,0,1,963.77,152.41l30.54,693.23C1006,934.29,939.31,1019.24,854,1015.92Z"/><path class="cls-35" d="M853.57,1013.06l-686.41-7.9c-84.1-1.58-144.09-76-144.09-146.37V152.29A127.44,127.44,0,0,1,150.51,24.85H835.94A127.43,127.43,0,0,1,963.38,152.29l29,693.49C1003.46,933,937.67,1016.22,853.57,1013.06Z"/><path class="cls-36" d="M853.15,1010.21l-687-7.49c-82.88-1.5-142.32-74.58-142.32-144.47V152.17A126.55,126.55,0,0,1,150.34,25.62H836.45A126.55,126.55,0,0,1,963,152.17l27.48,693.75C1001,931.8,936,1013.2,853.15,1010.21Z"/><path class="cls-37" d="M852.73,1007.35l-687.67-7.07C83.39,998.87,24.51,927.1,24.51,857.7V152.05A125.65,125.65,0,0,1,150.16,26.4H837A125.65,125.65,0,0,1,962.61,152.05l26,694C998.47,930.56,934.4,1010.18,852.73,1007.35Z"/><path class="cls-38" d="M852.31,1004.5,164,997.84C83.56,996.51,25.23,926.06,25.23,857.16V151.93A124.75,124.75,0,0,1,150,27.18H837.47A124.75,124.75,0,0,1,962.22,151.93L986.65,846.2C996,929.31,932.76,1007.16,852.31,1004.5Z"/><path class="cls-39" d="M851.89,1001.65,163,995.41C83.72,994.16,26,925,26,856.61V151.81A123.86,123.86,0,0,1,149.81,28H838A123.85,123.85,0,0,1,961.83,151.81l22.91,694.53C993.47,928.07,931.13,1004.14,851.89,1001.65Z"/><path class="cls-40" d="M851.48,998.79,161.9,993c-78-1.17-135.22-69-135.22-136.9V151.68a123,123,0,0,1,123-122.95H838.49a123,123,0,0,1,123,123l21.38,694.8C991,926.82,929.49,1001.12,851.48,998.79Z"/><path class="cls-41" d="M851.06,995.94l-690.21-5.41c-76.8-1.08-133.45-67.6-133.45-135v-704A122.06,122.06,0,0,1,149.46,29.5H839A122.06,122.06,0,0,1,961.06,151.56l19.85,695.06C988.48,925.58,927.85,998.1,851.06,995.94Z"/><path class="cls-42" d="M850.64,993.08l-690.84-5c-75.58-1-131.68-66.2-131.68-133.11V151.44A121.16,121.16,0,0,1,149.28,30.28H839.5A121.17,121.17,0,0,1,960.67,151.44L979,846.76C986,924.34,926.22,995.08,850.64,993.08Z"/><path class="cls-43" d="M850.22,990.23l-691.47-4.58c-74.37-.91-129.91-64.8-129.91-131.22V151.32A120.26,120.26,0,0,1,149.11,31.06H840A120.27,120.27,0,0,1,960.28,151.32l16.8,695.58C983.48,923.09,924.58,992.06,850.22,990.23Z"/><path class="cls-44" d="M849.8,987.38l-692.11-4.16c-73.14-.84-128.13-63.41-128.13-129.33V151.2A119.37,119.37,0,0,1,148.93,31.83H840.52A119.37,119.37,0,0,1,959.89,151.2L975.16,847C981,921.85,922.94,989,849.8,987.38Z"/><path class="cls-45" d="M849.38,984.52l-692.74-3.74c-71.93-.75-126.36-62-126.36-127.44V151.08A118.47,118.47,0,0,1,148.75,32.61H841A118.47,118.47,0,0,1,959.5,151.08l13.75,696.1C978.49,920.6,921.31,986,849.38,984.52Z"/><path class="cls-46" d="M849,981.67l-693.37-3.33C84.88,977.68,31,917.73,31,852.8V151A117.57,117.57,0,0,1,148.58,33.39h693A117.57,117.57,0,0,1,959.11,151l12.22,696.36C976,919.36,919.67,983,849,981.67Z"/><path class="cls-47" d="M848.54,978.81l-694-2.91C85,975.32,31.72,916.69,31.72,852.25V150.84A116.68,116.68,0,0,1,148.4,34.16H842.05A116.68,116.68,0,0,1,958.73,150.84l10.68,696.62C973.49,918.12,918,980,848.54,978.81Z"/><path class="cls-48" d="M848.12,976l-694.63-2.5c-68.28-.49-121-57.81-121-121.76v-701A115.79,115.79,0,0,1,148.23,34.94H842.55A115.79,115.79,0,0,1,958.34,150.72L967.5,847.6C971,916.87,916.4,977,848.12,976Z"/><path class="cls-49" d="M847.7,973.11,152.43,971c-67.06-.42-119.27-56.42-119.27-119.87V150.6A114.88,114.88,0,0,1,148.05,35.72h695A114.88,114.88,0,0,1,958,150.6l7.63,697.14C968.5,915.63,914.76,973.94,847.7,973.11Z"/><path class="cls-50" d="M847.28,970.25l-695.9-1.66c-65.84-.33-117.49-55-117.49-118V150.48a114,114,0,0,1,114-114H843.57a114,114,0,0,1,114,114l6.11,697.4C966,914.38,913.12,970.92,847.28,970.25Z"/><path class="cls-51" d="M846.86,967.4l-696.53-1.25C85.7,965.9,34.61,912.53,34.61,850.07V150.36A113.09,113.09,0,0,1,147.7,37.27H844.08A113.09,113.09,0,0,1,957.17,150.36L961.75,848C963.5,913.14,911.49,967.9,846.86,967.4Z"/><path class="cls-52" d="M846.44,964.54l-697.16-.83c-63.41-.16-113.95-52.22-113.95-114.19V150.24A112.19,112.19,0,0,1,147.52,38.05H844.59A112.19,112.19,0,0,1,956.78,150.24l3.06,697.91C961,911.9,909.85,964.88,846.44,964.54Z"/><path class="cls-53" d="M846,961.69l-697.8-.42C86,961.19,36.05,910.45,36.05,849V150.12a111.3,111.3,0,0,1,111.3-111.3H845.1a111.3,111.3,0,0,1,111.3,111.3l1.52,698.17C958.51,910.65,908.22,961.86,846,961.69Z"/><rect x="36.77" y="39.6" width="919.24" height="919.24" rx="110.4"/></g><rect class="cls-54" x="28.28" y="28.28" width="919.24" height="919.24" rx="110.4"/><rect class="cls-54" x="31.06" y="31.06" width="913.69" height="913.69" rx="108.71"/><rect class="cls-55" x="33.84" y="33.83" width="908.15" height="908.15" rx="107.02"/><rect class="cls-55" x="36.62" y="36.6" width="902.6" height="902.6" rx="105.32"/><rect class="cls-55" x="39.4" y="39.38" width="897.06" height="897.06" rx="103.63"/><rect class="cls-56" x="42.18" y="42.15" width="891.51" height="891.51" rx="101.93"/><rect class="cls-56" x="44.96" y="44.92" width="885.96" height="885.96" rx="100.24"/><rect class="cls-57" x="47.73" y="47.7" width="880.42" height="880.42" rx="98.54"/><rect class="cls-57" x="50.51" y="50.47" width="874.87" height="874.87" rx="96.85"/><rect class="cls-57" x="53.29" y="53.24" width="869.33" height="869.33" rx="95.16"/><rect class="cls-58" x="56.07" y="56.01" width="863.78" height="863.78" rx="93.46"/><rect class="cls-58" x="58.85" y="58.79" width="858.23" height="858.23" rx="91.77"/><rect class="cls-58" x="61.63" y="61.56" width="852.69" height="852.69" rx="90.07"/><rect class="cls-59" x="64.41" y="64.33" width="847.14" height="847.14" rx="88.38"/><rect class="cls-59" x="67.18" y="67.11" width="841.6" height="841.6" rx="86.69"/><rect class="cls-60" x="69.96" y="69.88" width="836.05" height="836.05" rx="84.99"/><rect class="cls-60" x="72.74" y="72.65" width="830.5" height="830.5" rx="83.3"/><rect class="cls-60" x="75.52" y="75.42" width="824.96" height="824.96" rx="81.6"/><rect class="cls-61" x="78.3" y="78.2" width="819.41" height="819.41" rx="79.91"/><rect class="cls-61" x="81.08" y="80.97" width="813.87" height="813.87" rx="78.22"/><rect class="cls-61" x="83.86" y="83.74" width="808.32" height="808.32" rx="76.52"/><rect class="cls-62" x="86.63" y="86.52" width="802.77" height="802.77" rx="74.83"/><rect class="cls-62" x="89.41" y="89.29" width="797.23" height="797.23" rx="73.13"/><rect class="cls-63" x="92.19" y="92.06" width="791.68" height="791.68" rx="71.44"/><rect class="cls-63" x="94.97" y="94.84" width="786.14" height="786.14" rx="69.75"/><rect class="cls-63" x="97.75" y="97.61" width="780.59" height="780.59" rx="68.05"/><rect class="cls-64" x="100.53" y="100.38" width="775.04" height="775.04" rx="66.36"/><rect class="cls-64" x="103.31" y="103.15" width="769.5" height="769.5" rx="64.66"/><rect class="cls-64" x="106.08" y="105.93" width="763.95" height="763.95" rx="62.97"/><rect class="cls-65" x="108.86" y="108.7" width="758.41" height="758.41" rx="61.28"/><rect class="cls-65" x="111.64" y="111.47" width="752.86" height="752.86" rx="59.58"/><rect class="cls-66" x="114.42" y="114.25" width="747.31" height="747.31" rx="57.89"/><rect class="cls-66" x="117.2" y="117.02" width="741.77" height="741.77" rx="56.19"/><rect class="cls-66" x="119.98" y="119.79" width="736.22" height="736.22" rx="54.5"/><rect class="cls-67" x="122.76" y="122.57" width="730.68" height="730.68" rx="52.8"/><rect class="cls-67" x="125.53" y="125.34" width="725.13" height="725.13" rx="51.11"/><rect class="cls-67" x="128.31" y="128.11" width="719.59" height="719.59" rx="49.42"/><rect class="cls-68" x="131.09" y="130.88" width="714.04" height="714.04" rx="47.72"/><rect class="cls-68" x="133.87" y="133.66" width="708.49" height="708.49" rx="46.03"/><rect class="cls-69" x="136.65" y="136.43" width="702.95" height="702.95" rx="44.33"/><rect class="cls-69" x="139.43" y="139.2" width="697.4" height="697.4" rx="42.64"/><rect class="cls-69" x="142.21" y="141.98" width="691.86" height="691.86" rx="40.95"/><rect class="cls-70" x="144.98" y="144.75" width="686.31" height="686.31" rx="39.25"/><rect class="cls-70" x="147.76" y="147.52" width="680.76" height="680.76" rx="37.56"/><rect class="cls-70" x="150.54" y="150.29" width="675.22" height="675.22" rx="35.86"/><rect class="cls-71" x="153.32" y="153.07" width="669.67" height="669.67" rx="34.17"/><rect class="cls-71" x="156.1" y="155.84" width="664.13" height="664.13" rx="32.48"/><rect class="cls-72" x="158.88" y="158.61" width="658.58" height="658.58" rx="30.78"/><rect class="cls-72" x="161.66" y="161.39" width="653.03" height="653.03" rx="29.09"/><rect class="cls-72" x="164.43" y="164.16" width="647.49" height="647.49" rx="27.39"/><rect class="cls-73" x="167.21" y="166.93" width="641.94" height="641.94" rx="25.7"/><rect class="cls-73" x="169.99" y="169.71" width="636.4" height="636.4" rx="24.01"/><rect class="cls-74" x="28.28" y="28.28" width="919.24" height="919.24" rx="110.4"/><rect class="cls-75" x="28.28" y="28.28" width="919.24" height="919.24" rx="110.4"/><polygon class="cls-76" points="290.59 493.87 290.59 493.87 487.85 610.46 487.85 610.46 685.1 493.86 487.85 166.58 487.85 166.57 487.85 166.57 487.84 166.57 487.84 166.58 290.59 493.86 290.59 493.87"/><polygon class="cls-76" points="685.22 531.27 487.85 647.81 487.85 647.81 290.59 531.27 487.84 809.23 487.84 809.23 685.22 531.27"/></g></g></g></svg>