<svg width="68" height="71" viewBox="0 0 68 71" fill="none" xmlns="http://www.w3.org/2000/svg">
<g style="mix-blend-mode:multiply" opacity="0.45">
<g style="mix-blend-mode:multiply" opacity="0.02">
<path d="M55.6312 70.7924L12.8253 69.4563C5.00356 69.1889 0.0462646 61.7885 0.0462646 56.2789V10.0257C0.0463489 8.71537 0.304278 7.41791 0.805319 6.20741C1.30636 4.9969 2.0407 3.89707 2.9664 2.97071C3.89209 2.04436 4.99101 1.30964 6.20038 0.808521C7.40976 0.307398 8.7059 0.0496883 10.0148 0.0501104H52.6531C53.9618 0.050026 55.2577 0.307985 56.4667 0.809259C57.6758 1.31053 58.7744 2.04531 59.6999 2.97162C60.6253 3.89794 61.3594 4.99766 61.8603 6.208C62.3611 7.41834 62.619 8.71559 62.6191 10.0257L67.5205 54.0777C69.3899 62.4428 63.4524 71.3271 55.6312 70.7924Z" fill="#FAFAFA"/>
</g>
<g style="mix-blend-mode:multiply" opacity="0.04">
<path d="M55.6041 70.6093L12.7572 69.2995C5.01439 69.0373 0.0924072 61.7217 0.0924072 56.2436V10.0186C0.0924072 7.38795 1.1363 4.865 2.99444 3.00483C4.85258 1.14465 7.37276 0.0996094 10.0006 0.0996094H52.6857C55.3132 0.100121 57.8329 1.14538 59.6906 3.00551C61.5484 4.86563 62.592 7.38828 62.592 10.0186L67.3952 54.0874C69.2293 62.3631 63.3476 71.1331 55.6041 70.6093Z" fill="#F5F5F5"/>
</g>
<g style="mix-blend-mode:multiply" opacity="0.06">
<path d="M55.5772 70.4261L12.6898 69.1407C5.0247 68.8837 0.138672 61.653 0.138672 56.2069V10.0109C0.138842 7.3955 1.17679 4.88727 3.0242 3.03795C4.8716 1.18864 7.37715 0.149719 9.9897 0.149719H52.7186C55.331 0.149719 57.8365 1.18866 59.6838 3.03799C61.5311 4.88732 62.5689 7.39556 62.5689 10.0109L67.2746 54.0983C69.0689 62.2828 63.2424 70.9389 55.5772 70.4261Z" fill="#F0F0F0"/>
</g>
<g style="mix-blend-mode:multiply" opacity="0.08">
<path d="M55.5503 70.2442L12.6225 68.9878C5.03566 68.7346 0.184937 61.5881 0.184937 56.1735V10.0032C0.184937 8.71579 0.438251 7.44095 0.930416 6.25151C1.42258 5.06207 2.14396 3.98133 3.05335 3.071C3.96275 2.16066 5.04235 1.43857 6.23052 0.945941C7.41869 0.453314 8.69215 0.199806 9.97819 0.19989H52.7514C54.0374 0.199806 55.3108 0.453319 56.4989 0.945953C57.687 1.43859 58.7666 2.16069 59.676 3.07103C60.5853 3.98138 61.3066 5.06212 61.7987 6.25156C62.2908 7.44099 62.544 8.71582 62.544 10.0032L67.1501 54.1054C68.9091 62.2031 63.1371 70.7449 55.5503 70.2442Z" fill="#EBEBEB"/>
</g>
<g style="mix-blend-mode:multiply" opacity="0.1">
<path d="M55.5233 70.0591L12.5549 68.8303C5.0439 68.5848 0.229126 61.5225 0.229126 56.1401V9.99611C0.229126 8.71599 0.481022 7.4484 0.970428 6.26574C1.45983 5.08308 2.17716 4.00851 3.08145 3.10341C3.98574 2.19832 5.05926 1.48041 6.24073 0.990705C7.42219 0.500997 8.68844 0.249076 9.96717 0.249329H52.7866C55.3681 0.250181 57.8436 1.27736 59.6687 3.105C61.4939 4.93265 62.5193 7.41113 62.5195 9.99547L67.0287 54.1131C68.7485 62.1227 63.0324 70.5507 55.5233 70.0591Z" fill="#E6E6E6"/>
</g>
<g style="mix-blend-mode:multiply" opacity="0.12">
<path d="M55.4964 69.876L12.4876 68.6729C5.05678 68.4319 0.277954 61.4544 0.277954 56.1054V9.9878C0.277954 7.4183 1.29757 4.95405 3.11249 3.13714C4.92741 1.32023 7.38897 0.2995 9.95565 0.2995H52.8161C54.0871 0.299415 55.3456 0.549948 56.5198 1.03679C57.6941 1.52364 58.761 2.23726 59.6597 3.13691C60.5584 4.03656 61.2714 5.10462 61.7577 6.2801C62.2441 7.45558 62.4945 8.71546 62.4945 9.9878L66.9055 54.1234C68.5881 62.0431 62.9272 70.3567 55.4964 69.876Z" fill="#E1E1E1"/>
</g>
<g style="mix-blend-mode:multiply" opacity="0.14">
<path d="M55.4694 69.6922L12.4196 68.5161C5.06773 68.2809 0.324219 61.3875 0.324219 56.0688V9.98007C0.324219 7.42592 1.33774 4.97637 3.14183 3.17031C4.94591 1.36424 7.39277 0.349609 9.94413 0.349609H52.8489C54.1122 0.349525 55.3633 0.598562 56.5305 1.0825C57.6977 1.56644 58.7583 2.2758 59.6516 3.17008C60.545 4.06436 61.2536 5.12604 61.7371 6.29451C62.2206 7.46297 62.4694 8.71533 62.4694 9.98007L66.7828 54.1318C68.4276 61.9634 62.8219 70.1626 55.4694 69.6922Z" fill="#DCDCDC"/>
</g>
<g style="mix-blend-mode:multiply" opacity="0.16">
<path d="M55.443 69.509L12.3521 68.3593C5.07793 68.1292 0.370361 61.3207 0.370361 56.0334V9.97238C0.370361 7.43271 1.37814 4.99706 3.17199 3.20124C4.96584 1.40542 7.39882 0.396545 9.93571 0.396545H52.8835C55.4204 0.396545 57.8534 1.40542 59.6472 3.20124C61.4411 4.99706 62.4488 7.43271 62.4488 9.97238L66.664 54.1408C68.2676 61.883 62.7204 69.9685 55.443 69.509Z" fill="#D7D7D7"/>
</g>
<g style="mix-blend-mode:multiply" opacity="0.18">
<path d="M55.4161 69.3252L12.2847 68.2025C5.08888 67.9782 0.416626 61.2539 0.416626 55.9981V9.96467C0.416796 7.44114 1.41829 5.02102 3.2008 3.23667C4.98332 1.45232 7.40086 0.44989 9.92163 0.44989H52.9143C55.4351 0.44989 57.8527 1.45232 59.6352 3.23667C61.4177 5.02102 62.4192 7.44114 62.4193 9.96467L66.5369 54.1498C68.1072 61.8034 62.6119 69.7744 55.4161 69.3252Z" fill="#D2D2D2"/>
</g>
<g style="mix-blend-mode:multiply" opacity="0.2">
<path d="M55.3892 69.142L12.2174 68.0456C5.0992 67.8265 0.462891 61.187 0.462891 55.9634V9.95694C0.462891 7.44847 1.45829 5.04273 3.23011 3.26897C5.00193 1.49521 7.40503 0.498718 9.91076 0.498718H52.9471C54.1879 0.498718 55.4164 0.743362 56.5627 1.21868C57.709 1.694 58.7505 2.39069 59.6278 3.26897C60.5051 4.14725 61.201 5.18991 61.6758 6.33744C62.1506 7.48496 62.395 8.71487 62.395 9.95694L66.4137 54.1587C67.9468 61.723 62.5067 69.5803 55.3892 69.142Z" fill="#CDCDCD"/>
</g>
<g style="mix-blend-mode:multiply" opacity="0.22">
<path d="M55.3621 68.9588L12.1499 67.8894C5.11003 67.6735 0.509033 61.1182 0.509033 55.928V9.94921C0.509033 7.45608 1.49834 5.06505 3.25933 3.30214C5.02031 1.53922 7.40872 0.548828 9.89912 0.548828H52.9798C55.4702 0.548828 57.8586 1.53922 59.6196 3.30214C61.3805 5.06505 62.3699 7.45608 62.3699 9.94921L66.291 54.1651C67.7861 61.6433 62.3994 69.3862 55.3621 68.9588Z" fill="#C8C8C8"/>
</g>
<g style="mix-blend-mode:multiply" opacity="0.24">
<path d="M55.3378 68.7751L12.0819 67.7327C5.12034 67.5238 0.555298 61.054 0.555298 55.8934V9.94219C0.555128 7.4645 1.5381 5.08822 3.28799 3.33605C5.03788 1.58388 7.41136 0.59934 9.88633 0.598999H53.0119C54.2375 0.598915 55.4511 0.840505 56.5834 1.30997C57.7158 1.77944 58.7446 2.4676 59.6113 3.33514C60.4779 4.20269 61.1654 5.23263 61.6344 6.36616C62.1035 7.49969 62.3449 8.71461 62.3449 9.94155L66.1678 54.1774C67.6257 61.5637 62.2967 69.1922 55.3378 68.7751Z" fill="#C3C3C3"/>
</g>
<g style="mix-blend-mode:multiply" opacity="0.25">
<path d="M55.3083 68.5919L12.0145 67.5758C5.1313 67.3727 0.601562 60.9897 0.601562 55.858V9.93379C0.601733 7.47121 1.57899 5.10955 3.31839 3.36824C5.05778 1.62694 7.41686 0.648608 9.87674 0.648438H53.0447C55.5047 0.648438 57.8638 1.62671 59.6033 3.36805C61.3427 5.10939 62.3199 7.47116 62.3199 9.93379L66.0433 54.1857C67.4659 61.4833 62.1915 68.9981 55.3083 68.5919Z" fill="#BEBEBE"/>
</g>
<g style="mix-blend-mode:multiply" opacity="0.27">
<path d="M55.2814 68.4081L11.9471 67.4165C5.14223 67.2185 0.648438 60.9171 0.648438 55.8207V9.92612C0.648437 7.47894 1.61947 5.13198 3.34793 3.40151C5.07639 1.67104 7.4207 0.698779 9.8652 0.698608H53.0775C55.5221 0.698608 57.8666 1.67079 59.5952 3.40128C61.3238 5.13178 62.2949 7.47883 62.2949 9.92612L65.922 54.1948C67.3055 61.4036 62.0869 68.804 55.2814 68.4081Z" fill="#B9B9B9"/>
</g>
<g style="mix-blend-mode:multiply" opacity="0.29">
<path d="M55.2544 68.2249L11.8797 67.2609C5.15245 67.0681 0.69397 60.8515 0.69397 55.7866V9.91838C0.69414 7.48638 1.65931 5.15404 3.37718 3.43441C5.09504 1.71478 7.4249 0.748718 9.85424 0.748718H53.1102C54.3131 0.74855 55.5044 0.985605 56.6158 1.44635C57.7273 1.90709 58.7372 2.5825 59.5878 3.434C60.4385 4.28549 61.1133 5.29641 61.5737 6.40901C62.0341 7.5216 62.2711 8.7141 62.2711 9.91838L65.8019 54.2037C67.1449 61.3232 61.9816 68.6099 55.2544 68.2249Z" fill="#B4B4B4"/>
</g>
<g style="mix-blend-mode:multiply" opacity="0.31">
<path d="M55.2274 68.0418L11.8123 67.106C5.16273 66.9184 0.740845 60.7853 0.740845 55.7532V9.91068C0.740845 7.49402 1.69977 5.17632 3.40667 3.46742C5.11358 1.75852 7.42867 0.798388 9.84269 0.798218H53.1429C54.3383 0.798218 55.5219 1.03392 56.6263 1.49186C57.7306 1.94981 58.7341 2.62103 59.5793 3.4672C60.4246 4.31337 61.0951 5.31792 61.5525 6.42349C62.0099 7.52907 62.2454 8.71402 62.2454 9.91068L65.6735 54.2127C66.9844 61.2468 61.8769 68.4158 55.2274 68.0418Z" fill="#AFAFAF"/>
</g>
<g style="mix-blend-mode:multiply" opacity="0.33">
<path d="M55.2005 67.858L11.7443 66.9492C5.17369 66.7674 0.787109 60.7185 0.787109 55.7198V9.90296C0.787109 7.50152 1.74003 5.19844 3.43625 3.50037C5.13246 1.80229 7.43302 0.848328 9.83183 0.848328H53.1757C54.3635 0.848328 55.5396 1.08253 56.637 1.53757C57.7343 1.99261 58.7314 2.65957 59.5713 3.50037C60.4112 4.34117 61.0774 5.33934 61.5319 6.4379C61.9865 7.53646 62.2204 8.71389 62.2204 9.90296L65.5535 54.2217C66.8246 61.1639 61.7717 68.2217 55.2005 67.858Z" fill="#AAAAAA"/>
</g>
<g style="mix-blend-mode:multiply" opacity="0.35">
<path d="M55.1735 67.6735L11.6768 66.7911C5.18394 66.6157 0.834595 60.6516 0.834595 55.6831V9.89715C0.834595 7.51088 1.7815 5.22235 3.46699 3.53501C5.15249 1.84766 7.43851 0.899719 9.82217 0.899719H53.2084C55.592 0.899719 57.8781 1.84766 59.5636 3.53501C61.2491 5.22235 62.196 7.51088 62.196 9.89715L65.4308 54.2326C66.6641 61.0835 61.6663 68.0276 55.1735 67.6735Z" fill="#A5A5A5"/>
</g>
<g style="mix-blend-mode:multiply" opacity="0.37">
<path d="M55.1452 67.491L11.6081 66.6356C5.19349 66.4646 0.878174 60.5848 0.878174 55.6459V9.88752C0.878174 8.71345 1.10919 7.55088 1.55804 6.4662C2.00688 5.38151 2.66476 4.39596 3.4941 3.56583C4.32345 2.73569 5.30801 2.07723 6.39158 1.62805C7.47514 1.17887 8.63647 0.947768 9.80926 0.947937H53.2404C55.6088 0.947937 57.8801 1.88978 59.5547 3.56628C61.2294 5.24278 62.1702 7.5166 62.1702 9.88752L65.3075 54.2416C66.5035 61.0038 61.5648 67.8335 55.1452 67.491Z" fill="#A0A0A0"/>
</g>
<g style="mix-blend-mode:multiply" opacity="0.39">
<path d="M55.1196 67.3078L11.542 66.4787C5.20515 66.3129 0.925781 60.5179 0.925781 55.6131V9.87979C0.925697 8.7134 1.15512 7.55842 1.60095 6.4808C2.04678 5.40317 2.70029 4.42402 3.52415 3.59926C4.34801 2.7745 5.32609 2.12028 6.40253 1.67396C7.47897 1.22764 8.63269 0.997962 9.7978 0.998047H53.2733C55.6259 0.998558 57.882 1.93456 59.5453 3.60017C61.2086 5.26578 62.1429 7.5246 62.1427 9.87979L65.1818 54.2487C66.3431 60.9254 61.4565 67.6394 55.1196 67.3078Z" fill="#9B9B9B"/>
</g>
<g style="mix-blend-mode:multiply" opacity="0.41">
<path d="M55.0925 67.1247L11.4745 66.3239C5.21599 66.1633 0.971924 60.4525 0.971924 55.5791V9.87213C0.971924 7.53188 1.90056 5.28749 3.55356 3.63268C5.20655 1.97788 7.44848 1.04822 9.78617 1.04822H53.3059C54.4634 1.04822 55.6096 1.27646 56.679 1.7199C57.7484 2.16334 58.7201 2.81331 59.5385 3.63268C60.357 4.45206 61.0063 5.4248 61.4492 6.49536C61.8922 7.56593 62.1202 8.71336 62.1202 9.87213L65.061 54.2577C66.1832 60.8439 61.3511 67.4454 55.0925 67.1247Z" fill="#969696"/>
</g>
<g style="mix-blend-mode:multiply" opacity="0.43">
<path d="M55.0656 66.9408L11.4065 66.1658C5.2263 66.0109 1.01819 60.3817 1.01819 55.543V9.86437C1.01819 7.53929 1.94081 5.30944 3.58309 3.66537C5.22536 2.02129 7.45277 1.09766 9.7753 1.09766H53.3387C54.4887 1.09766 55.6274 1.32441 56.6899 1.76498C57.7524 2.20555 58.7177 2.8513 59.5309 3.66537C60.3441 4.47943 60.9891 5.44587 61.4292 6.50949C61.8693 7.57312 62.0958 8.71311 62.0958 9.86437L64.9384 54.2667C66.0227 60.7635 61.2439 67.2513 55.0656 66.9408Z" fill="#919191"/>
</g>
<g style="mix-blend-mode:multiply" opacity="0.45">
<path d="M55.0393 66.7577L11.3391 66.009C5.24043 65.8593 1.06763 60.3175 1.06763 55.5077V9.85669C1.06763 7.54752 1.98372 5.33287 3.61447 3.69973C5.24521 2.06659 7.4571 1.14868 9.76375 1.14783H53.3715C55.6787 1.14783 57.8914 2.06537 59.5228 3.6986C61.1543 5.33183 62.0708 7.54696 62.0708 9.85669L64.8152 54.2757C65.8623 60.6838 61.1412 67.0572 55.0393 66.7577Z" fill="#8C8C8C"/>
</g>
<g style="mix-blend-mode:multiply" opacity="0.47">
<path d="M55.0123 66.5739L11.2717 65.8522C5.24745 65.7083 1.1106 60.2507 1.1106 55.473V9.849C1.1106 7.55443 2.02111 5.35385 3.64184 3.73134C5.26256 2.10884 7.46074 1.19733 9.75279 1.19733H53.4067C55.6982 1.19818 57.8956 2.11007 59.5156 3.73248C61.1357 5.35489 62.0457 7.55499 62.0457 9.849L64.6926 54.2847C65.7017 60.6041 61.0359 66.8631 55.0123 66.5739Z" fill="#878787"/>
</g>
<g style="mix-blend-mode:multiply" opacity="0.49">
<path d="M54.9853 66.3882L11.203 65.6928C5.25835 65.5566 1.15552 60.1838 1.15552 55.4377V9.84127C1.15552 8.7126 1.3776 7.59499 1.80909 6.55225C2.24058 5.50952 2.87302 4.56209 3.67029 3.76406C4.46756 2.96603 5.41405 2.33304 6.45571 1.90123C7.49737 1.46943 8.61379 1.24727 9.74122 1.24744H53.4362C55.713 1.24744 57.8965 2.15286 59.5064 3.76451C61.1162 5.37617 62.0207 7.56204 62.0207 9.84127L64.5693 54.2937C65.5451 60.5238 60.9312 66.669 54.9853 66.3882Z" fill="#828282"/>
</g>
<g style="mix-blend-mode:multiply" opacity="0.51">
<path d="M54.9584 66.2075L11.1363 65.5392C5.26869 65.4055 1.20374 60.1169 1.20374 55.4029V9.83289C1.20374 8.71196 1.42429 7.602 1.8528 6.56641C2.28131 5.53081 2.90939 4.58985 3.70117 3.79726C4.49295 3.00468 5.43293 2.37598 6.46742 1.94708C7.50192 1.51817 8.61067 1.29746 9.73038 1.29755H53.4691C54.5888 1.29746 55.6975 1.51817 56.732 1.94708C57.7665 2.37598 58.7065 3.00468 59.4983 3.79726C60.29 4.58985 60.9181 5.53081 61.3466 6.56641C61.7752 7.602 61.9957 8.71196 61.9957 9.83289L64.4467 54.3059C65.3815 60.444 60.826 66.4749 54.9584 66.2075Z" fill="#7D7D7D"/>
</g>
<g style="mix-blend-mode:multiply" opacity="0.53">
<path d="M54.9314 66.0238L11.0688 65.3811C5.27952 65.2526 1.24988 60.0469 1.24988 55.3663V9.82583C1.25056 7.57767 2.14309 5.42182 3.73122 3.83231C5.31935 2.2428 7.47304 1.34978 9.71874 1.34961H53.5011C55.747 1.34944 57.901 2.24231 59.4894 3.83185C61.0778 5.4214 61.9705 7.57745 61.9712 9.82583L64.3253 54.3117C65.2241 60.3638 60.7207 66.2809 54.9314 66.0238Z" fill="#787878"/>
</g>
<g style="mix-blend-mode:multiply" opacity="0.55">
<path d="M54.9045 65.8406L11.0014 65.2256C5.28983 65.1028 1.29614 59.9833 1.29614 55.3342V9.81813C1.29614 7.58527 2.18217 5.44386 3.75932 3.86498C5.33646 2.28611 7.47553 1.39911 9.70594 1.39911H53.5332C55.7636 1.39911 57.9027 2.28611 59.4798 3.86498C61.057 5.44386 61.943 7.58527 61.943 9.81813L64.1976 54.3201C65.0604 60.2828 60.6161 66.0861 54.9045 65.8406Z" fill="#737373"/>
</g>
<g style="mix-blend-mode:multiply" opacity="0.57">
<path d="M54.8775 65.6568L10.9341 65.0688C5.30079 64.9512 1.34241 59.9165 1.34241 55.3001V9.81044C1.34241 7.59285 2.2222 5.46605 3.78832 3.89773C5.35443 2.32942 7.47863 1.44801 9.69379 1.44733H53.5673C55.7829 1.44733 57.9077 2.32844 59.4744 3.89682C61.0411 5.46521 61.9212 7.5924 61.9212 9.81044L64.0776 54.3291C64.9032 60.2044 60.5108 65.892 54.8775 65.6568Z" fill="#6E6E6E"/>
</g>
<g style="mix-blend-mode:multiply" opacity="0.59">
<path d="M54.8505 65.4736L10.8666 64.91C5.31099 64.7982 1.38855 59.8477 1.38855 55.2603V9.80268C1.38847 8.71196 1.60299 7.63191 2.01987 6.62419C2.43676 5.61647 3.04784 4.70083 3.81822 3.92955C4.5886 3.15827 5.50319 2.54645 6.50977 2.12903C7.51635 1.71161 8.5952 1.49677 9.68473 1.49677H53.6C54.6895 1.49677 55.7683 1.71161 56.7749 2.12903C57.7815 2.54645 58.6961 3.15827 59.4665 3.92955C60.2368 4.70083 60.8479 5.61647 61.2648 6.62419C61.6817 7.63191 61.8962 8.71196 61.8961 9.80268L63.9549 54.3399C64.7401 60.124 60.4055 65.6979 54.8505 65.4736Z" fill="#696969"/>
</g>
<g style="mix-blend-mode:multiply" opacity="0.61">
<path d="M54.8242 65.2905L10.7992 64.7558C5.32194 64.6485 1.43481 59.7828 1.43481 55.2275V9.79501C1.43481 7.60748 2.30285 5.50955 3.84797 3.96274C5.39309 2.41593 7.48872 1.54694 9.67385 1.54694H53.6327C55.8177 1.54711 57.9132 2.41617 59.4582 3.96297C61.0032 5.50976 61.8711 7.60759 61.8711 9.79501L63.8317 54.3471C64.5821 60.0444 60.3009 65.5039 54.8242 65.2905Z" fill="#646464"/>
</g>
<g style="mix-blend-mode:multiply" opacity="0.63">
<path d="M54.7967 65.1067L10.7312 64.599C5.33226 64.4974 1.48108 59.7147 1.48108 55.1922V9.78728C1.48108 7.61509 2.34303 5.53188 3.87732 3.99591C5.4116 2.45994 7.49254 1.59705 9.66234 1.59705H53.6649C54.7393 1.59696 55.8032 1.80875 56.7958 2.22032C57.7884 2.63189 58.6904 3.23517 59.4501 3.99572C60.2098 4.75627 60.8124 5.65919 61.2235 6.65291C61.6347 7.64664 61.8462 8.7117 61.8461 9.78728L63.7078 54.3561C64.4192 59.9615 60.1956 65.3098 54.7967 65.1067Z" fill="#5F5F5F"/>
</g>
<g style="mix-blend-mode:multiply" opacity="0.65">
<path d="M54.7696 64.9235L10.6663 64.4422C5.34565 64.3458 1.52979 59.6491 1.52979 55.1575V9.77958C1.52979 7.62301 2.38537 5.55473 3.90838 4.02956C5.43139 2.5044 7.49714 1.64723 9.65135 1.64655H53.6975C55.8522 1.64655 57.9186 2.50342 59.4422 4.02866C60.9657 5.5539 61.8217 7.62256 61.8217 9.77958L63.5858 54.3651C64.2611 59.8843 60.0883 65.1157 54.7696 64.9235Z" fill="#5A5A5A"/>
</g>
<g style="mix-blend-mode:multiply" opacity="0.67">
<path d="M54.7427 64.7397L10.5964 64.2853C5.3534 64.1947 1.57349 59.5823 1.57349 55.1221V9.77185C1.57349 7.63017 2.42333 5.57622 3.93607 4.06182C5.4488 2.54743 7.50051 1.69666 9.63984 1.69666H53.7329C55.8718 1.69734 57.9228 2.54841 59.435 4.06273C60.9472 5.57705 61.7967 7.63062 61.7967 9.77185L63.4658 54.3734C64.0988 59.8046 59.9857 64.9216 54.7427 64.7397Z" fill="#555555"/>
</g>
<g style="mix-blend-mode:multiply" opacity="0.69">
<path d="M54.7157 64.5565L10.5282 64.1285C5.36424 64.043 1.61963 59.5154 1.61963 55.0874V9.76412C1.61963 8.71115 1.82682 7.66851 2.22937 6.69571C2.63192 5.72292 3.22194 4.83904 3.96574 4.09454C4.70954 3.35004 5.59255 2.75951 6.56434 2.35668C7.53614 1.95385 8.57768 1.7466 9.62949 1.74677H53.763C55.887 1.74677 57.924 2.59145 59.4259 4.09499C60.9278 5.59854 61.7715 7.63778 61.7715 9.76412L63.3399 54.383C63.9401 59.7243 59.8803 64.7275 54.7157 64.5565Z" fill="#505050"/>
</g>
<g style="mix-blend-mode:multiply" opacity="0.71">
<path d="M54.6887 64.3734L10.4641 63.9724C5.37452 63.8921 1.66907 59.4473 1.66907 55.0521V9.75644C1.66975 7.64634 2.50737 5.62285 3.9978 4.13079C5.48824 2.63872 7.5095 1.80018 9.61729 1.7995H53.797C55.905 1.79984 57.9266 2.63823 59.4173 4.13033C60.908 5.62244 61.7458 7.64612 61.7465 9.75644L63.2173 54.3921C63.7777 59.6446 59.7757 64.5334 54.6887 64.3734Z" fill="#4B4B4B"/>
</g>
<g style="mix-blend-mode:multiply" opacity="0.73">
<path d="M54.6624 64.1896L10.3935 63.8174C5.38612 63.7423 1.71277 59.383 1.71277 55.0192V9.74804C1.71362 7.6521 2.54592 5.64228 4.02665 4.16053C5.50739 2.67877 7.51534 1.84637 9.609 1.84637H53.8285C54.8655 1.84637 55.8923 2.05084 56.8503 2.4481C57.8083 2.84536 58.6788 3.42763 59.412 4.16166C60.1452 4.8957 60.7269 5.76713 61.1237 6.72619C61.5205 7.68525 61.7247 8.71317 61.7247 9.75126L63.0973 54.4042C63.6192 59.5642 59.6704 64.3393 54.6624 64.1896Z" fill="#464646"/>
</g>
<g style="mix-blend-mode:multiply" opacity="0.75">
<path d="M54.6355 64.0064L10.3261 63.6587C5.39579 63.5893 1.75903 59.3143 1.75903 54.9826V9.73842C1.75954 7.65827 2.58533 5.66349 4.05479 4.19278C5.52425 2.72208 7.51705 1.89587 9.59492 1.89587H53.8613C55.9395 1.89587 57.9326 2.72234 59.4021 4.19347C60.8716 5.66459 61.6972 7.65986 61.6972 9.74035L62.9715 54.41C63.4575 59.4846 59.5652 64.1452 54.6355 64.0064Z" fill="#414141"/>
</g>
<g style="mix-blend-mode:multiply" opacity="0.76">
<path d="M54.6085 63.8227L10.2586 63.5013C5.40663 63.4371 1.80518 59.2468 1.80518 54.9467V9.73268C1.80518 7.66754 2.62465 5.68697 4.08333 4.2267C5.54201 2.76642 7.5204 1.94604 9.58328 1.94604H53.8933C55.9563 1.94604 57.9347 2.7664 59.3935 4.22666C60.8523 5.68692 61.6719 7.66748 61.6721 9.73268L62.8488 54.4191C63.2982 59.4049 59.4605 63.9512 54.6085 63.8227Z" fill="#3C3C3C"/>
</g>
<g style="mix-blend-mode:multiply" opacity="0.78">
<path d="M54.5815 63.6395L10.1913 63.3451C5.41694 63.2867 1.85144 59.1806 1.85144 54.912V9.72495C1.85144 8.70993 2.05115 7.70486 2.43918 6.76712C2.8272 5.82938 3.39593 4.97733 4.1129 4.25964C4.82986 3.54195 5.68102 2.97266 6.61777 2.58429C7.55452 2.19592 8.55851 1.99607 9.57241 1.99615H53.9254C54.9394 1.99607 55.9434 2.19591 56.8802 2.58428C57.817 2.97264 58.6682 3.54192 59.3852 4.2596C60.1022 4.97728 60.671 5.82932 61.0591 6.76707C61.4472 7.70482 61.647 8.7099 61.6471 9.72495L62.7256 54.428C63.1364 59.3246 59.3552 63.7571 54.5815 63.6395Z" fill="#373737"/>
</g>
<g style="mix-blend-mode:multiply" opacity="0.8">
<path d="M54.5546 63.4563L10.1233 63.189C5.4279 63.135 1.89771 59.1138 1.89771 54.8773V9.71725C1.89771 7.68262 2.70508 5.73132 4.1422 4.29261C5.57933 2.85391 7.52849 2.04565 9.5609 2.04565H53.9589C55.9913 2.04565 57.9405 2.85391 59.3776 4.29261C60.8147 5.73132 61.6221 7.68262 61.6221 9.71725L62.6024 54.4345C62.9773 59.2449 59.25 63.5604 54.5546 63.4563Z" fill="#323232"/>
</g>
<g style="mix-blend-mode:multiply" opacity="0.82">
<path d="M54.5276 63.2725L10.0558 63.0322C5.43809 62.984 1.94385 59.0476 1.94385 54.8419V9.70952C1.94385 7.69023 2.74513 5.75364 4.17142 4.32578C5.59771 2.89793 7.53218 2.09576 9.54926 2.09576H53.9896C54.9885 2.09551 55.9777 2.29226 56.9007 2.67477C57.8236 3.05729 58.6623 3.61807 59.3687 4.3251C60.0751 5.03213 60.6355 5.87155 61.0178 6.79542C61.4002 7.71929 61.597 8.7095 61.597 9.70952L62.4797 54.446C62.8161 59.1645 59.1453 63.3676 54.5276 63.2725Z" fill="#2D2D2D"/>
</g>
<g style="mix-blend-mode:multiply" opacity="0.84">
<path d="M54.5032 63.0893L9.99098 62.8753C5.44905 62.8329 1.99011 58.9801 1.99011 54.8072V9.70436C1.98978 8.71183 2.18477 7.72896 2.56397 6.8119C2.94316 5.89483 3.49912 5.06154 4.20008 4.35963C4.90105 3.65772 5.73328 3.10094 6.64925 2.7211C7.56521 2.34125 8.54695 2.14579 9.53839 2.14587H54.0269C55.0181 2.14621 55.9995 2.34199 56.9151 2.72202C57.8306 3.10205 58.6625 3.6589 59.3631 4.36077C60.0637 5.06264 60.6194 5.89579 60.9984 6.81264C61.3774 7.7295 61.5723 8.7121 61.572 9.70436L62.3564 54.4576C62.6562 59.0848 59.04 63.1748 54.5032 63.0893Z" fill="#282828"/>
</g>
<g style="mix-blend-mode:multiply" opacity="0.86">
<path d="M54.4737 62.9055L9.92105 62.7185C5.45679 62.6812 2.03638 58.9132 2.03638 54.7719V9.69409C2.03638 7.70531 2.82555 5.79798 4.23029 4.3917C5.63504 2.98541 7.54027 2.19537 9.52688 2.19537H54.0571C56.0437 2.19537 57.9489 2.98541 59.3537 4.3917C60.7584 5.79798 61.5476 7.70531 61.5476 9.69409L62.2332 54.464C62.4951 59.0051 58.9328 62.982 54.4737 62.9055Z" fill="#232323"/>
</g>
<g style="mix-blend-mode:multiply" opacity="0.88">
<path d="M54.4468 62.7249L9.85365 62.5643C5.47028 62.5328 2.08582 58.849 2.08582 54.7391V9.68764C2.08565 7.71448 2.86829 5.82202 4.26164 4.42642C5.65499 3.03081 7.54497 2.24634 9.51597 2.24548H54.0892C56.0606 2.24548 57.9512 3.02941 59.3452 4.42483C60.7392 5.82024 61.5224 7.71286 61.5226 9.68636L62.1106 54.473C62.3353 58.9248 58.8302 62.7892 54.4468 62.7249Z" fill="#1E1E1E"/>
</g>
<g style="mix-blend-mode:multiply" opacity="0.9">
<path d="M54.4198 62.5392L9.78555 62.4036C5.48051 62.3766 2.12878 58.7777 2.12878 54.6999V9.67869C2.12878 8.70908 2.31956 7.74897 2.69023 6.85318C3.0609 5.95738 3.60419 5.14346 4.28908 4.45787C4.97398 3.77228 5.78706 3.22847 6.68191 2.85747C7.57675 2.48648 8.53583 2.29557 9.50437 2.29566H54.1213C55.0901 2.29506 56.0496 2.4856 56.9449 2.85636C57.8402 3.22713 58.6537 3.77087 59.339 4.45651C60.0243 5.14214 60.568 5.95624 60.9389 6.85229C61.3098 7.74833 61.5007 8.70876 61.5007 9.67869L61.9905 54.482C62.1748 58.8452 58.7248 62.5926 54.4198 62.5392Z" fill="#191919"/>
</g>
<g style="mix-blend-mode:multiply" opacity="0.92">
<path d="M54.3928 62.3554L9.71816 62.2487C5.49143 62.2275 2.17566 58.714 2.17566 54.6652V9.67096C2.17566 7.72786 2.94671 5.86434 4.31918 4.49036C5.69166 3.11638 7.55314 2.34448 9.49411 2.34448H54.1547C56.0956 2.34448 57.9571 3.11638 59.3296 4.49036C60.7021 5.86434 61.4731 7.72786 61.4731 9.67096L61.8653 54.491C62.0143 58.7648 58.6196 62.3985 54.3928 62.3554Z" fill="#141414"/>
</g>
<g style="mix-blend-mode:multiply" opacity="0.94">
<path d="M54.3658 62.1722L9.65068 62.0919C5.50163 62.0758 2.2218 58.6459 2.2218 54.6318V9.66326C2.2218 7.73566 2.9867 5.88702 4.34822 4.52401C5.70974 3.161 7.55636 2.39526 9.48184 2.39526H54.1873C56.1128 2.39526 57.9594 3.161 59.3209 4.52401C60.6825 5.88702 61.4474 7.73566 61.4474 9.66326L61.7414 54.4987C61.8537 58.6851 58.5148 62.2044 54.3658 62.1722Z" fill="#0F0F0F"/>
</g>
<g style="mix-blend-mode:multiply" opacity="0.96">
<path d="M54.3389 61.9884L9.58331 61.9351C5.51258 61.9248 2.26807 58.5791 2.26807 54.5964V9.65553C2.26807 7.74328 3.02687 5.90935 4.37756 4.55718C5.72825 3.20501 7.56017 2.44537 9.47033 2.44537H54.2201C56.1303 2.44537 57.9622 3.20501 59.3129 4.55718C60.6636 5.90935 61.4224 7.74328 61.4224 9.65553L61.6188 54.5084C61.6933 58.6054 58.4096 62.0103 54.3389 61.9884Z" fill="#0A0A0A"/>
</g>
<g style="mix-blend-mode:multiply" opacity="0.98">
<path d="M54.3107 61.8053L9.51466 61.7783C5.52097 61.7732 2.31433 58.5122 2.31433 54.563V9.64783C2.31433 7.75075 3.06712 5.93137 4.40709 4.58993C5.74706 3.24849 7.56445 2.49487 9.45945 2.49487H54.2529C56.1479 2.49487 57.9653 3.24849 59.3053 4.58993C60.6452 5.93137 61.398 7.75075 61.398 9.64783L61.4956 54.5174C61.5335 58.5251 58.305 61.8162 54.3107 61.8053Z" fill="#050505"/>
</g>
<g style="mix-blend-mode:multiply" opacity="0.45">
<path d="M54.2856 2.54498H9.44782C5.53359 2.54498 2.36047 5.72157 2.36047 9.6401V54.527C2.36047 58.4455 5.53359 61.6221 9.44782 61.6221H54.2856C58.1998 61.6221 61.3729 58.4455 61.3729 54.527V9.6401C61.3729 5.72157 58.1998 2.54498 54.2856 2.54498Z" fill="black"/>
</g>
</g>
<path d="M53.7405 1.8175H8.90277C4.98854 1.8175 1.81543 4.9941 1.81543 8.91262V53.7995C1.81543 57.718 4.98854 60.8946 8.90277 60.8946H53.7405C57.6547 60.8946 60.8278 57.718 60.8278 53.7995V8.91262C60.8278 4.9941 57.6547 1.8175 53.7405 1.8175Z" fill="#1A1A1A"/>
<path d="M53.6713 1.99615H8.97287C5.11856 1.99615 1.99402 5.12412 1.99402 8.98266V53.7301C1.99402 57.5886 5.11856 60.7166 8.97287 60.7166H53.6713C57.5256 60.7166 60.6502 57.5886 60.6502 53.7301V8.98266C60.6502 5.12412 57.5256 1.99615 53.6713 1.99615Z" fill="#1A1A1A"/>
<path d="M53.6026 2.17419H9.04285C5.24845 2.17419 2.17249 5.25353 2.17249 9.05209V53.6607C2.17249 57.4593 5.24845 60.5386 9.04285 60.5386H53.6026C57.397 60.5386 60.473 57.4593 60.473 53.6607V9.05209C60.473 5.25353 57.397 2.17419 53.6026 2.17419Z" fill="#1B1B1B"/>
<path d="M53.5339 2.35217H9.11218C5.37806 2.35217 2.35095 5.38259 2.35095 9.12081V53.5912C2.35095 57.3294 5.37806 60.3599 9.11218 60.3599H53.5339C57.268 60.3599 60.2951 57.3294 60.2951 53.5912V9.12081C60.2951 5.38259 57.268 2.35217 53.5339 2.35217Z" fill="#1B1B1B"/>
<path d="M53.4652 2.53082H9.18215C5.50795 2.53082 2.52942 5.51262 2.52942 9.19085V53.5225C2.52942 57.2007 5.50795 60.1825 9.18215 60.1825H53.4652C57.1394 60.1825 60.118 57.2007 60.118 53.5225V9.19085C60.118 5.51262 57.1394 2.53082 53.4652 2.53082Z" fill="#1C1C1C"/>
<path d="M53.3965 2.70886H9.25148C5.63755 2.70886 2.70789 5.64174 2.70789 9.25964V53.4531C2.70789 57.071 5.63755 60.0039 9.25148 60.0039H53.3965C57.0105 60.0039 59.9401 57.071 59.9401 53.4531V9.25964C59.9401 5.64174 57.0105 2.70886 53.3965 2.70886Z" fill="#1C1C1C"/>
<path d="M53.3272 2.8869H9.32146C5.76745 2.8869 2.88635 5.77115 2.88635 9.32906V53.383C2.88635 56.9409 5.76745 59.8252 9.32146 59.8252H53.3272C56.8812 59.8252 59.7623 56.9409 59.7623 53.383V9.32906C59.7623 5.77115 56.8812 2.8869 53.3272 2.8869Z" fill="#1D1D1D"/>
<path d="M53.2584 3.06555H9.39006C5.89632 3.06555 3.06409 5.90089 3.06409 9.39846V53.3149C3.06409 56.8125 5.89632 59.6478 9.39006 59.6478H53.2584C56.7522 59.6478 59.5844 56.8125 59.5844 53.3149V9.39846C59.5844 5.90089 56.7522 3.06555 53.2584 3.06555Z" fill="#1D1D1D"/>
<path d="M53.1891 3.24359H9.46003C6.02621 3.24359 3.24255 6.0303 3.24255 9.46789V53.2449C3.24255 56.6825 6.02621 59.4692 9.46003 59.4692H53.1891C56.6229 59.4692 59.4066 56.6825 59.4066 53.2449V9.46789C59.4066 6.0303 56.6229 3.24359 53.1891 3.24359Z" fill="#1E1E1E"/>
<path d="M53.1204 3.42157H9.53C6.15611 3.42157 3.42102 6.15965 3.42102 9.53725V53.1754C3.42102 56.553 6.15611 59.2911 9.53 59.2911H53.1204C56.4943 59.2911 59.2294 56.553 59.2294 53.1754V9.53725C59.2294 6.15965 56.4943 3.42157 53.1204 3.42157Z" fill="#1E1E1E"/>
<path d="M53.0517 3.59961H9.59934C6.28571 3.59961 3.59949 6.28878 3.59949 9.60604V53.106C3.59949 56.4233 6.28571 59.1124 9.59934 59.1124H53.0517C56.3653 59.1124 59.0515 56.4233 59.0515 53.106V9.60604C59.0515 6.28878 56.3653 3.59961 53.0517 3.59961Z" fill="#1F1F1F"/>
<path d="M52.9824 3.77826H9.66931C6.4156 3.77826 3.77795 6.4188 3.77795 9.67607V53.0366C3.77795 56.2939 6.4156 58.9344 9.66931 58.9344H52.9824C56.2361 58.9344 58.8737 56.2939 58.8737 53.0366V9.67607C58.8737 6.4188 56.2361 3.77826 52.9824 3.77826Z" fill="#1F1F1F"/>
<path d="M52.9143 3.9563H9.73864C6.54521 3.9563 3.95642 6.54793 3.95642 9.74486V52.9679C3.95642 56.1648 6.54521 58.7564 9.73864 58.7564H52.9143C56.1077 58.7564 58.6965 56.1648 58.6965 52.9679V9.74486C58.6965 6.54793 56.1077 3.9563 52.9143 3.9563Z" fill="#202020"/>
<path d="M52.845 4.13434H9.80862C6.6751 4.13434 4.13489 6.67734 4.13489 9.81429V52.8979C4.13489 56.0348 6.6751 58.5778 9.80862 58.5778H52.845C55.9785 58.5778 58.5187 56.0348 58.5187 52.8979V9.81429C58.5187 6.67734 55.9785 4.13434 52.845 4.13434Z" fill="#202020"/>
<path d="M52.7757 4.31299H9.87798C6.80439 4.31299 4.31274 6.80736 4.31274 9.88433V52.8291C4.31274 55.906 6.80439 58.4004 9.87798 58.4004H52.7757C55.8493 58.4004 58.3409 55.906 58.3409 52.8291V9.88433C58.3409 6.80736 55.8493 4.31299 52.7757 4.31299Z" fill="#212121"/>
<path d="M52.707 4.49103H9.94731C6.93399 4.49103 4.49121 6.93648 4.49121 9.95311V52.7597C4.49121 55.7763 6.93399 58.2217 9.94731 58.2217H52.707C55.7203 58.2217 58.1631 55.7763 58.1631 52.7597V9.95311C58.1631 6.93648 55.7203 4.49103 52.707 4.49103Z" fill="#212121"/>
<path d="M52.6377 4.66901H10.0173C7.06388 4.66901 4.66968 7.06584 4.66968 10.0225V52.6896C4.66968 55.6462 7.06388 58.043 10.0173 58.043H52.6377C55.5911 58.043 57.9853 55.6462 57.9853 52.6896V10.0225C57.9853 7.06584 55.5911 4.66901 52.6377 4.66901Z" fill="#222222"/>
<path d="M52.5696 4.84705H10.0866C7.19349 4.84705 4.84814 7.19496 4.84814 10.0913V52.6208C4.84814 55.5171 7.19349 57.865 10.0866 57.865H52.5696C55.4627 57.865 57.8081 55.5171 57.8081 52.6208V10.0913C57.8081 7.19496 55.4627 4.84705 52.5696 4.84705Z" fill="#222222"/>
<path d="M52.5003 5.0257H10.1566C7.32338 5.0257 5.02661 7.32498 5.02661 10.1613V52.5514C5.02661 55.3877 7.32338 57.687 10.1566 57.687H52.5003C55.3335 57.687 57.6303 55.3877 57.6303 52.5514V10.1613C57.6303 7.32498 55.3335 5.0257 52.5003 5.0257Z" fill="#232323"/>
<path d="M52.4316 5.20374H10.2266C7.45327 5.20374 5.20508 7.4544 5.20508 10.2307V52.482C5.20508 55.2583 7.45327 57.509 10.2266 57.509H52.4316C55.2049 57.509 57.4531 55.2583 57.4531 52.482V10.2307C57.4531 7.4544 55.2049 5.20374 52.4316 5.20374Z" fill="#232323"/>
<path d="M52.3629 5.38177H10.2959C7.58288 5.38177 5.38354 7.58352 5.38354 10.2995V52.4126C5.38354 55.1286 7.58288 57.3304 10.2959 57.3304H52.3629C55.0759 57.3304 57.2752 55.1286 57.2752 52.4126V10.2995C57.2752 7.58352 55.0759 5.38177 52.3629 5.38177Z" fill="#242424"/>
<path d="M52.293 5.56042H10.3653C7.71216 5.56042 5.5614 7.71355 5.5614 10.3696V52.3432C5.5614 54.9992 7.71216 57.1523 10.3653 57.1523H52.293C54.9461 57.1523 57.0968 54.9992 57.0968 52.3432V10.3696C57.0968 7.71355 54.9461 5.56042 52.293 5.56042Z" fill="#242424"/>
<path d="M52.2249 5.7384H10.4346C7.84177 5.7384 5.73987 7.84261 5.73987 10.4383V52.2744C5.73987 54.87 7.84177 56.9742 10.4346 56.9742H52.2249C54.8177 56.9742 56.9196 54.87 56.9196 52.2744V10.4383C56.9196 7.84261 54.8177 5.7384 52.2249 5.7384Z" fill="#252525"/>
<path d="M52.1556 5.91644H10.5046C7.97166 5.91644 5.91833 7.97202 5.91833 10.5077V52.2044C5.91833 54.74 7.97166 56.7956 10.5046 56.7956H52.1556C54.6885 56.7956 56.7418 54.74 56.7418 52.2044V10.5077C56.7418 7.97202 54.6885 5.91644 52.1556 5.91644Z" fill="#252525"/>
<path d="M52.0869 6.09509H10.5745C8.10155 6.09509 6.0968 8.10204 6.0968 10.5777V52.1356C6.0968 54.6113 8.10155 56.6182 10.5745 56.6182H52.0869C54.5598 56.6182 56.5646 54.6113 56.5646 52.1356V10.5777C56.5646 8.10204 54.5598 6.09509 52.0869 6.09509Z" fill="#262626"/>
<path d="M52.0182 6.27313H10.6439C8.23116 6.27313 6.27527 8.23117 6.27527 10.6465V52.0662C6.27527 54.4816 8.23116 56.4396 10.6439 56.4396H52.0182C54.4309 56.4396 56.3868 54.4816 56.3868 52.0662V10.6465C56.3868 8.23117 54.4309 6.27313 52.0182 6.27313Z" fill="#262626"/>
<path d="M51.9488 6.45117H10.7138C8.36105 6.45117 6.45374 8.36058 6.45374 10.716V51.9962C6.45374 54.3515 8.36105 56.2609 10.7138 56.2609H51.9488C54.3016 56.2609 56.209 54.3515 56.209 51.9962V10.716C56.209 8.36058 54.3016 6.45117 51.9488 6.45117Z" fill="#272727"/>
<path d="M51.8808 6.62915H10.7832C8.49066 6.62915 6.6322 8.48964 6.6322 10.7847V51.9273C6.6322 54.2224 8.49066 56.0829 10.7832 56.0829H51.8808C54.1733 56.0829 56.0318 54.2224 56.0318 51.9273V10.7847C56.0318 8.48964 54.1733 6.62915 51.8808 6.62915Z" fill="#272727"/>
<path d="M51.8108 6.80786H10.8525C8.61994 6.80786 6.81006 8.61973 6.81006 10.8548V51.858C6.81006 54.093 8.61994 55.9049 10.8525 55.9049H51.8108C54.0434 55.9049 55.8533 54.093 55.8533 51.858V10.8548C55.8533 8.61973 54.0434 6.80786 51.8108 6.80786Z" fill="#282828"/>
<path d="M51.7422 6.98584H10.9225C8.74983 6.98584 6.98853 8.74908 6.98853 10.9241V51.7886C6.98853 53.9636 8.74983 55.7269 10.9225 55.7269H51.7422C53.9148 55.7269 55.6761 53.9636 55.6761 51.7886V10.9241C55.6761 8.74908 53.9148 6.98584 51.7422 6.98584Z" fill="#282828"/>
<path d="M51.6735 7.16388H10.9918C8.87944 7.16388 7.16699 8.8782 7.16699 10.9929V51.7191C7.16699 53.8339 8.87944 55.5482 10.9918 55.5482H51.6735C53.7859 55.5482 55.4983 53.8339 55.4983 51.7191V10.9929C55.4983 8.8782 53.7859 7.16388 51.6735 7.16388Z" fill="#292929"/>
<path d="M51.6041 7.34253H11.0618C9.00933 7.34253 7.34546 9.00823 7.34546 11.063V51.6497C7.34546 53.7045 9.00933 55.3702 11.0618 55.3702H51.6041C53.6566 55.3702 55.3205 53.7045 55.3205 51.6497V11.063C55.3205 9.00823 53.6566 7.34253 51.6041 7.34253Z" fill="#292929"/>
<path d="M51.5361 7.52057H11.1312C9.13894 7.52057 7.52393 9.13735 7.52393 11.1318V51.581C7.52393 53.5754 9.13894 55.1922 11.1312 55.1922H51.5361C53.5283 55.1922 55.1433 53.5754 55.1433 51.581V11.1318C55.1433 9.13735 53.5283 7.52057 51.5361 7.52057Z" fill="#2A2A2A"/>
<path d="M51.4667 7.69861H11.2011C9.26883 7.69861 7.70239 9.26676 7.70239 11.2012V51.511C7.70239 53.4454 9.26883 55.0135 11.2011 55.0135H51.4667C53.399 55.0135 54.9655 53.4454 54.9655 51.511V11.2012C54.9655 9.26676 53.399 7.69861 51.4667 7.69861Z" fill="#2A2A2A"/>
<path d="M51.3987 7.87726H11.2705C9.39843 7.87726 7.88086 9.3965 7.88086 11.2706V51.4428C7.88086 53.3169 9.39843 54.8361 11.2705 54.8361H51.3987C53.2707 54.8361 54.7883 53.3169 54.7883 51.4428V11.2706C54.7883 9.3965 53.2707 7.87726 51.3987 7.87726Z" fill="#2B2B2B"/>
<path d="M51.3286 8.0553H11.3397C9.5276 8.0553 8.05859 9.52591 8.05859 11.34V51.3728C8.05859 53.1869 9.5276 54.6575 11.3397 54.6575H51.3286C53.1407 54.6575 54.6097 53.1869 54.6097 51.3728V11.34C54.6097 9.52591 53.1407 8.0553 51.3286 8.0553Z" fill="#2B2B2B"/>
<path d="M51.2599 8.23328H11.4097C9.65749 8.23328 8.23706 9.65526 8.23706 11.4094V51.3033C8.23706 53.0574 9.65749 54.4794 11.4097 54.4794H51.2599C53.0121 54.4794 54.4326 53.0574 54.4326 51.3033V11.4094C54.4326 9.65526 53.0121 8.23328 51.2599 8.23328Z" fill="#2C2C2C"/>
<path d="M51.1912 8.41132H11.479C9.78709 8.41132 8.41553 9.78439 8.41553 11.4782V51.2339C8.41553 52.9277 9.78709 54.3008 11.479 54.3008H51.1912C52.8831 54.3008 54.2547 52.9277 54.2547 51.2339V11.4782C54.2547 9.78439 52.8831 8.41132 51.1912 8.41132Z" fill="#2C2C2C"/>
<path d="M51.1219 8.58997H11.549C9.91699 8.58997 8.59399 9.91441 8.59399 11.5482V51.1645C8.59399 52.7983 9.91699 54.1227 11.549 54.1227H51.1219C52.7539 54.1227 54.0769 52.7983 54.0769 51.1645V11.5482C54.0769 9.91441 52.7539 8.58997 51.1219 8.58997Z" fill="#2D2D2D"/>
<path d="M51.0539 8.76801H11.6183C10.0466 8.76801 8.77246 10.0435 8.77246 11.617V51.0958C8.77246 52.6692 10.0466 53.9447 11.6183 53.9447H51.0539C52.6256 53.9447 53.8997 52.6692 53.8997 51.0958V11.617C53.8997 10.0435 52.6256 8.76801 51.0539 8.76801Z" fill="#2D2D2D"/>
<path d="M50.9845 8.94604H11.6883C10.1765 8.94604 8.95093 10.1729 8.95093 11.6864V51.0258C8.95093 52.5392 10.1765 53.7661 11.6883 53.7661H50.9845C52.4963 53.7661 53.7219 52.5392 53.7219 51.0258V11.6864C53.7219 10.1729 52.4963 8.94604 50.9845 8.94604Z" fill="#2E2E2E"/>
<path d="M50.9158 9.12469H11.7583C10.3064 9.12469 9.12939 10.303 9.12939 11.7564V50.957C9.12939 52.4104 10.3064 53.5887 11.7583 53.5887H50.9158C52.3677 53.5887 53.5447 52.4104 53.5447 50.957V11.7564C53.5447 10.303 52.3677 9.12469 50.9158 9.12469Z" fill="#2E2E2E"/>
<path d="M50.8465 9.30267H11.827C10.4354 9.30267 9.30725 10.432 9.30725 11.8252V50.8875C9.30725 52.2806 10.4354 53.41 11.827 53.41H50.8465C52.2381 53.41 53.3663 52.2806 53.3663 50.8875V11.8252C53.3663 10.432 52.2381 9.30267 50.8465 9.30267Z" fill="#2F2F2F"/>
<path d="M50.7772 9.48071H11.897C10.5653 9.48071 9.48572 10.5614 9.48572 11.8946V50.8175C9.48572 52.1506 10.5653 53.2313 11.897 53.2313H50.7772C52.1089 53.2313 53.1884 52.1506 53.1884 50.8175V11.8946C53.1884 10.5614 52.1089 9.48071 50.7772 9.48071Z" fill="#2F2F2F"/>
<path d="M50.7092 9.65875H11.9663C10.6949 9.65875 9.66418 10.6906 9.66418 11.9634V50.7487C9.66418 52.0215 10.6949 53.0534 11.9663 53.0534H50.7092C51.9806 53.0534 53.0113 52.0215 53.0113 50.7487V11.9634C53.0113 10.6906 51.9806 9.65875 50.7092 9.65875Z" fill="#303030"/>
<path d="M50.6398 9.8374H12.0363C10.8248 9.8374 9.84265 10.8206 9.84265 12.0334V50.6793C9.84265 51.8921 10.8248 52.8753 12.0363 52.8753H50.6398C51.8513 52.8753 52.8334 51.8921 52.8334 50.6793V12.0334C52.8334 10.8206 51.8513 9.8374 50.6398 9.8374Z" fill="#303030"/>
<path d="M50.5711 10.0154H12.1062C10.9547 10.0154 10.0211 10.95 10.0211 12.1028V50.6099C10.0211 51.7627 10.9547 52.6973 12.1062 52.6973H50.5711C51.7227 52.6973 52.6563 51.7627 52.6563 50.6099V12.1028C52.6563 10.95 51.7227 10.0154 50.5711 10.0154Z" fill="#313131"/>
<path d="M50.5024 10.1934H12.1756C11.0843 10.1934 10.1996 11.0791 10.1996 12.1716V50.5405C10.1996 51.633 11.0843 52.5186 12.1756 52.5186H50.5024C51.5937 52.5186 52.4784 51.633 52.4784 50.5405V12.1716C52.4784 11.0791 51.5937 10.1934 50.5024 10.1934Z" fill="#313131"/>
<path d="M50.4331 10.3721H12.2455C11.2142 10.3721 10.3781 11.2092 10.3781 12.2417V50.4711C10.3781 51.5036 11.2142 52.3407 12.2455 52.3407H50.4331C51.4645 52.3407 52.3006 51.5036 52.3006 50.4711V12.2417C52.3006 11.2092 51.4645 10.3721 50.4331 10.3721Z" fill="#323232"/>
<path d="M50.3645 10.5501H12.3143C11.3432 10.5501 10.5559 11.3382 10.5559 12.3104V50.4023C10.5559 51.3745 11.3432 52.1626 12.3143 52.1626H50.3645C51.3356 52.1626 52.1228 51.3745 52.1228 50.4023V12.3104C52.1228 11.3382 51.3356 10.5501 50.3645 10.5501Z" fill="#323232"/>
<path d="M50.2951 10.7281H12.3842C11.473 10.7281 10.7344 11.4676 10.7344 12.3798V50.3323C10.7344 51.2445 11.473 51.9839 12.3842 51.9839H50.2951C51.2063 51.9839 51.945 51.2445 51.945 50.3323V12.3798C51.945 11.4676 51.2063 10.7281 50.2951 10.7281Z" fill="#333333"/>
<path d="M50.2264 10.9068H12.4542C11.6029 10.9068 10.9128 11.5976 10.9128 12.4499V50.2635C10.9128 51.1157 11.6029 51.8065 12.4542 51.8065H50.2264C51.0777 51.8065 51.7678 51.1157 51.7678 50.2635V12.4499C51.7678 11.5976 51.0777 10.9068 50.2264 10.9068Z" fill="#333333"/>
<path style="mix-blend-mode:soft-light" opacity="0.5" d="M53.7405 1.8175H8.90277C4.98854 1.8175 1.81543 4.9941 1.81543 8.91262V53.7995C1.81543 57.718 4.98854 60.8946 8.90277 60.8946H53.7405C57.6547 60.8946 60.8278 57.718 60.8278 53.7995V8.91262C60.8278 4.9941 57.6547 1.8175 53.7405 1.8175Z" fill="url(#paint0_linear_10_539)"/>
<path style="mix-blend-mode:soft-light" opacity="0.5" d="M53.7405 1.8175H8.90277C4.98854 1.8175 1.81543 4.9941 1.81543 8.91262V53.7995C1.81543 57.718 4.98854 60.8946 8.90277 60.8946H53.7405C57.6547 60.8946 60.8278 57.718 60.8278 53.7995V8.91262C60.8278 4.9941 57.6547 1.8175 53.7405 1.8175Z" fill="url(#paint1_linear_10_539)"/>
<path d="M18.6557 31.7397H18.655L31.3185 39.2326L43.9814 31.7391L31.3185 10.7057V10.705H31.3179V10.7057L18.655 31.7391L18.6557 31.7397Z" fill="white"/>
<path d="M43.9891 34.1433L31.3185 41.633L18.655 34.1433L31.3179 52.0071L43.9891 34.1433Z" fill="white"/>
<defs>
<linearGradient id="paint0_linear_10_539" x1="1.81543" y1="31.3561" x2="60.8278" y2="31.3561" gradientUnits="userSpaceOnUse">
<stop stop-color="white"/>
<stop offset="1"/>
</linearGradient>
<linearGradient id="paint1_linear_10_539" x1="31.3216" y1="1.8175" x2="31.3216" y2="60.8946" gradientUnits="userSpaceOnUse">
<stop stop-color="white"/>
<stop offset="1"/>
</linearGradient>
</defs>
</svg>
